<?xml version="1.0" encoding="UTF-8" standalone="no"?>
<svg
   xmlns:dc="http://purl.org/dc/elements/1.1/"
   xmlns:cc="http://creativecommons.org/ns#"
   xmlns:rdf="http://www.w3.org/1999/02/22-rdf-syntax-ns#"
   xmlns:svg="http://www.w3.org/2000/svg"
   xmlns="http://www.w3.org/2000/svg"
   viewBox="0 0 144 150.39999"
   height="150.39999"
   width="144"
   id="svg4638"
   version="1.1">
  <metadata
     id="metadata4644">
    <rdf:RDF>
      <cc:Work
         rdf:about="">
        <dc:format>image/svg+xml</dc:format>
        <dc:type
           rdf:resource="http://purl.org/dc/dcmitype/StillImage" />
        <dc:title></dc:title>
      </cc:Work>
    </rdf:RDF>
  </metadata>
  <defs
     id="defs4642" />
  <path
     id="path6232"
     d="M 48.796515,63.333632 C 46.524281,58.012475 44.138139,53.374766 42.10667,46.60902 39.836379,42.666033 37.623477,38.034366 35.613585,30.966589 c 1.19425,-6.140728 4.391093,-6.091618 8.460686,-3.344922 2.114099,4.099169 4.572318,8.198339 5.706044,12.297508 3.733942,5.443135 7.192035,10.851788 8.854207,16.035952 2.791983,-3.776152 6.224687,-6.468007 12.395888,-4.525483 8.296409,-7.677354 12.430099,-2.271878 17.216513,1.08218 1.153645,-5.017383 2.651604,-10.034767 4.328723,-15.05215 0.667142,-3.961168 1.89415,-8.668823 3.344922,-13.67483 0.522334,-3.539322 0.699128,-6.733105 2.459502,-11.510468 4.76647,-3.4227004 7.26602,-1.178089 9.44449,1.869221 -0.0175,4.944453 -0.47462,9.156276 -1.27894,12.789409 -0.61557,4.540506 -1.32439,8.894497 -2.45951,12.395889 -0.81289,9.090703 -3.16365,16.643537 -4.919,24.791778 2.0716,6.796743 1.97695,12.608824 1.18056,18.101932 -2.036047,5.760193 -4.194715,11.029905 -6.493083,15.740812 -1.768855,3.613433 -2.26715,6.972743 -2.754642,10.329903 -11.114088,3.57458 -22.499116,4.03334 -34.137885,1.57409 -0.540363,-1.54129 -1.020093,-3.08258 -2.065981,-4.62387 -2.099956,-7.277763 -3.495017,-15.965314 -4.820623,-24.791776 z"
     style="fill:#000000;stroke:#ffffff;stroke-width:1px;stroke-linecap:butt;stroke-linejoin:miter;stroke-opacity:1;fill-opacity:1" />
  <path
     id="path6236"
     d="m 58.634522,55.955127 c -0.322059,1.852825 -0.284477,3.705649 0.04919,5.558474 0.592646,1.932442 1.089797,3.960379 2.311931,5.263333 1.607331,4.204538 2.770278,6.927793 3.590873,8.509876 0.58738,3.448472 1.590126,5.373937 2.557882,7.427696 1.210278,1.190218 2.420555,1.471822 3.630833,1.232305 2.265818,-0.44841 4.531636,-2.723316 6.797454,-4.282087 0.09038,-3.969756 -0.601066,-7.470414 -1.131371,-11.067758 -5.20527,-3.810608 -5.854085,-8.340657 -3.590872,-13.3305 L 71.03041,51.429644"
     style="fill:#000000;stroke:#ffffff;stroke-width:1px;stroke-linecap:butt;stroke-linejoin:miter;stroke-opacity:1;fill-opacity:1" />
  <path
     id="path6238"
     d="M 72.604492,99.193167 C 71.153801,94.514598 70.131655,89.643184 71.276361,83.796687"
     style="fill:#000000;stroke:#ffffff;stroke-width:1px;stroke-linecap:butt;stroke-linejoin:miter;stroke-opacity:1;fill-opacity:1" />
  <path
     id="path6240"
     d="m 77.572685,79.664724 c 2.939784,-1.328131 5.693625,-2.656262 7.722836,-3.984393 -0.494531,-1.721651 -0.285508,-3.443303 -0.14757,-5.164954 -1.859525,0.687586 -5.490283,-0.879123 -8.706637,-1.918411"
     style="fill:#000000;stroke:#ffffff;stroke-width:1px;stroke-linecap:butt;stroke-linejoin:miter;stroke-opacity:1;fill-opacity:1" />
  <path
     id="path6242"
     d="m 72.850442,55.266466 c 0.440667,-0.333739 0.556109,-0.721683 1.721651,-0.93461 4.555697,1.38506 9.100038,2.804187 14.16673,2.656261 5.141329,1.325792 7.702411,4.281214 10.428287,7.132556"
     style="fill:#000000;stroke:#ffffff;stroke-width:1px;stroke-linecap:butt;stroke-linejoin:miter;stroke-opacity:1;fill-opacity:1" />
  <path
     id="path6244"
     d="m 88.246923,52.511824 0.4919,4.476293"
     style="fill:#000000;stroke:#ffffff;stroke-width:1px;stroke-linecap:butt;stroke-linejoin:miter;stroke-opacity:1;fill-opacity:1" />
  <path
     id="path6248"
     d="m 69.84985,82.960456 c -0.236339,-0.748923 -0.464597,-1.502559 0.83623,-3.148162 4.108411,-1.013586 5.62731,-1.477881 5.410904,-1.574081"
     style="fill:#000000;stroke:#ffffff;stroke-width:1px;stroke-linecap:butt;stroke-linejoin:miter;stroke-opacity:1;fill-opacity:1" />
  <path
     id="path6250"
     d="m 74.719663,55.610797 c -1.150836,1.823579 -0.932284,3.752496 -0.39352,5.706044 2.935207,2.476302 4.510204,2.232184 5.755234,1.328131 l 1.524891,-5.263334"
     style="fill:#000000;stroke:#ffffff;stroke-width:1px;stroke-linecap:butt;stroke-linejoin:miter;stroke-opacity:1;fill-opacity:1" />
</svg>
